PathFileType	4	(X/Y/Z)	C:\Users\WrightLab\Desktop\Jo\P2_Trial27.trc
DataRate	CameraRate	NumFrames	NumMarkers	Units	OrigDataRate	OrigDataStartFrame	OrigNumFrames
100.00	100.00	       16	19	mm	100.00	251	       501
Frame#	Time	Headset_Front			Headset_Back			Headset_Left			Headset_Right			Left_Shoulder			Right_Shoulder			Sternum			C7			Left Elbow			Right Elbow			Left Wrist			Right Wrist			Left ASIS			Right ASIS			S2			Left Knee			Right Knee			Left Ankle			Right Ankle			
		X1	Y1	Z1	X2	Y2	Z2	X3	Y3	Z3	X4	Y4	Z4	X5	Y5	Z5	X6	Y6	Z6	X7	Y7	Z7	X8	Y8	Z8	X9	Y9	Z9	X10	Y10	Z10	X11	Y11	Z11	X12	Y12	Z12	X13	Y13	Z13	X14	Y14	Z14	X15	Y15	Z15	X16	Y16	Z16	X17	Y17	Z17	X18	Y18	Z18	X19	Y19	Z19	

251	2.500	-479.10892	1417.65515	252.82274	-512.19269	1647.96472	49.39986	-393.15259	1531.77576	99.45445	-591.82031	1506.12976	210.55746	-388.93552	1392.61011	-13.91243	-705.53192	1406.96387	79.88111	-533.52533	1288.20740	106.85821	-588.82068	1389.16675	-66.59025	-285.90915	1042.93884	9.25120	-844.70465	1089.90259	43.32655	-265.62555	807.00421	60.26332	-919.48962	847.72736	80.92213	-490.01517	972.02881	155.79865	-628.07928	987.19238	182.32970	-625.59711	898.36279	-84.50731	-503.39737	413.09305	-116.79258	-711.56744	552.46362	190.91454	-551.80719	174.87453	-358.46039	-677.69196	236.23772	433.98795	
252	2.510	-475.82248	1418.90234	265.42184	-509.93707	1649.49939	61.40520	-390.54144	1533.63684	110.57106	-588.95111	1507.25562	222.80872	-385.94504	1394.42847	-2.15039	-702.49841	1407.95300	93.24966	-528.28290	1290.41479	123.47471	-586.77240	1389.95447	-53.89771	-282.72000	1044.35242	17.13895	-839.44080	1089.81848	58.60337	-262.23636	806.54669	61.95678	-913.08026	847.81665	98.96721	-486.14023	974.05756	166.53238	-622.81006	988.92719	194.81212	-622.95245	899.94562	-71.00043	-509.38156	413.26685	-93.08340	-712.16400	556.06183	209.51440	-556.15137	188.14310	-339.14264	-664.64331	233.71388	445.51559	
253	2.520	-471.43707	1420.56128	277.32645	-507.05197	1651.41577	73.53352	-387.41660	1535.26282	122.81052	-585.51904	1508.81494	235.47182	-383.74319	1396.59253	8.75827	-699.39490	1408.87830	106.57931	-524.51727	1292.36609	135.72865	-584.46460	1391.41602	-41.22551	-279.94345	1046.41858	24.53368	-834.33368	1089.37085	75.31958	-258.37375	807.50665	66.72425	-906.35071	846.81250	116.40073	-480.52518	976.07556	177.72173	-617.06317	990.95367	206.87505	-620.38135	901.59711	-59.29814	-515.06616	412.89294	-68.89211	-712.21368	558.00647	227.71643	-560.85559	203.75458	-316.59091	-652.26111	230.85167	456.80304	
254	2.530	-467.59579	1422.48950	289.94052	-503.80368	1653.03406	85.77094	-384.12454	1536.91833	135.49367	-581.17523	1511.04553	247.89922	-381.03668	1398.82483	19.89989	-695.99164	1409.88330	120.68996	-520.19855	1293.88464	148.12750	-581.97510	1393.03931	-28.41326	-277.32407	1048.35461	32.77155	-829.09937	1089.48083	90.49914	-255.81468	808.65411	68.89405	-900.01874	848.49982	136.16585	-476.23047	978.34961	187.62883	-611.97034	993.38794	218.87166	-618.04077	904.08014	-46.83336	-521.25848	410.31760	-41.13896	-711.38556	561.09631	245.26547	-566.47198	217.91440	-287.72900	-640.25983	227.76828	467.18423	
255	2.540	-463.97882	1424.87927	302.64807	-500.59189	1654.86646	99.68504	-380.42661	1538.85645	147.05199	-577.50305	1513.45923	261.61304	-378.15601	1401.71680	31.25569	-692.12433	1410.96875	134.15794	-516.11096	1296.29004	160.72282	-579.16357	1394.74988	-15.38054	-274.70142	1050.42590	40.30745	-823.67139	1089.77588	107.11317	-251.56844	810.35193	73.26315	-892.59222	848.14380	154.64343	-469.74698	981.52069	196.66530	-606.05524	995.84137	230.65459	-615.30511	906.34125	-34.32557	-525.74915	407.79840	-13.19840	-714.64502	566.57996	267.62549	-569.25732	229.26906	-259.31519	-630.66534	223.45224	477.05719	
256	2.550	-459.88559	1426.73254	315.14990	-497.18845	1657.01001	112.34053	-376.83478	1541.22510	158.75493	-573.74280	1516.02966	274.53543	-374.95831	1404.49048	41.83056	-687.64148	1412.33789	148.43018	-511.18097	1298.34741	172.79131	-576.71484	1397.48730	-3.12388	-271.04370	1053.11890	47.16854	-818.24402	1090.28662	123.14406	-248.34319	812.01086	75.63949	-884.93280	848.32513	174.07263	-465.14990	983.86676	206.44803	-599.64032	998.18365	241.67221	-613.01556	909.02136	-22.84742	-527.57269	406.73331	14.84737	-716.70044	572.71069	286.23724	-571.01019	240.55144	-228.71246	-623.68945	217.36890	485.00891	
257	2.560	-456.38260	1429.29688	327.89459	-492.07846	1659.29529	124.69883	-372.63248	1543.36694	172.30089	-569.68359	1518.56897	287.33047	-371.05667	1407.53369	52.21926	-683.08618	1413.79810	163.15952	-505.91809	1300.44714	184.10811	-573.55383	1400.12463	10.20164	-268.29556	1055.95227	54.12719	-812.79498	1091.14673	139.85538	-245.07683	814.52838	77.44367	-877.53308	849.61938	193.33537	-459.90942	985.31317	215.07544	-593.44220	1000.89209	252.91705	-610.72119	911.96338	-11.46092	-520.31848	408.71341	41.82191	-715.63947	573.61011	302.77347	-571.87445	252.14944	-197.27202	-617.84735	208.03722	490.23651	
258	2.570	-451.24191	1431.12390	340.02661	-488.13464	1661.46545	137.44452	-368.63077	1545.70740	185.80426	-565.44727	1520.08472	299.60260	-367.72769	1410.86084	62.95625	-678.08020	1415.25146	178.42021	-500.22934	1302.69714	195.29871	-570.95917	1403.02185	22.44477	-265.15878	1059.06042	60.14108	-807.01874	1092.64160	156.57082	-241.11139	817.28271	80.17247	-869.18317	850.93018	213.22572	-454.27811	988.06860	223.34857	-586.35626	1003.47314	263.81348	-608.56525	915.18610	-0.59783	-511.40274	412.85861	72.21951	-716.44714	577.27374	318.92624	-570.11676	263.00406	-167.03439	-612.64410	197.73450	493.09326	
259	2.580	-446.56000	1433.47473	352.37537	-484.54889	1664.35547	150.49060	-364.27386	1548.57922	197.19292	-561.04089	1522.12646	311.98090	-363.90820	1413.53503	73.32157	-672.46887	1416.90479	192.89977	-494.49893	1304.49561	206.89351	-568.19214	1406.41089	35.58410	-261.67419	1062.83972	66.71310	-801.31470	1094.23511	173.09467	-237.63663	820.73352	86.31233	-860.99188	852.26636	231.66554	-447.79047	989.04535	232.03784	-578.83118	1004.96509	274.29840	-606.56555	918.54181	10.44043	-499.72635	418.01715	103.28009	-715.49921	579.10938	333.43991	-568.08344	272.92294	-135.22980	-607.81152	187.58878	494.89459	
260	2.590	-441.99057	1435.62854	364.61261	-479.79657	1666.25549	162.89912	-359.31314	1550.84558	209.91835	-556.16119	1524.05286	323.83499	-360.37662	1416.97925	82.30828	-666.88855	1418.88940	207.74666	-488.39914	1306.73267	218.19939	-564.89569	1409.01392	48.21276	-258.21130	1066.05225	72.60912	-795.34399	1095.92957	191.35373	-234.07883	825.27881	83.33264	-851.73169	853.65729	253.71353	-441.27466	991.25159	240.76021	-571.54260	1007.53326	285.29926	-605.02380	922.43036	20.93748	-484.03299	424.05429	134.90327	-715.22900	580.69244	347.80682	-564.44263	281.80521	-101.98029	-603.68604	179.08615	494.64221	
261	2.600	-437.69031	1437.20715	377.04568	-474.74411	1668.78320	175.61230	-354.44626	1553.46448	222.67380	-551.68402	1525.65015	336.46158	-356.86517	1420.48193	92.19503	-660.90656	1420.73389	222.16470	-482.26309	1308.96313	229.22922	-561.20898	1411.97717	61.54390	-254.88196	1069.36133	77.83392	-790.42145	1097.86475	207.89687	-229.63724	827.80792	86.63111	-842.30139	855.35767	273.13785	-434.87323	993.19739	247.94028	-564.94189	1009.37378	296.45074	-602.92456	925.11987	32.96171	-469.06427	430.54565	167.08382	-714.98993	582.97247	364.48511	-560.15558	290.67041	-68.96335	-601.04663	173.94838	492.47772	
262	2.610	-431.94458	1438.93604	389.13287	-469.75204	1670.93945	188.46523	-348.97449	1555.86182	233.80713	-546.47803	1527.86475	348.66968	-353.02298	1423.27124	101.82296	-654.77393	1422.70459	237.07683	-475.94189	1310.60962	239.94461	-558.69708	1414.92139	74.26691	-250.92012	1072.58875	83.29250	-783.93317	1099.55872	226.43251	-225.96497	831.96869	90.49949	-832.75110	857.22559	292.98004	-427.80835	995.21783	256.77731	-557.43622	1011.23456	307.04022	-600.78424	929.00916	43.66100	-452.80719	436.93500	198.76262	-712.89105	583.41504	377.02652	-554.59125	299.27832	-35.29493	-600.35596	172.50389	488.35162	
263	2.620	-427.32990	1440.96936	401.32312	-464.75055	1673.10864	200.85355	-343.96622	1558.18530	245.88063	-541.17682	1529.08301	360.66034	-349.29337	1426.19141	111.74739	-648.42297	1424.88318	251.75421	-469.61942	1312.71545	250.17003	-555.55139	1417.99878	87.98240	-247.76102	1076.02991	87.15116	-777.69598	1101.54846	243.73279	-221.24565	835.19629	90.33270	-823.14087	859.34662	313.26178	-422.62656	996.63580	265.50027	-550.25281	1012.45856	317.45059	-598.37354	932.47150	54.33825	-432.52777	446.93805	230.42586	-710.77386	584.85638	385.77682	-549.86084	305.61945	-0.45070	-598.97095	173.04271	484.48291	
264	2.630	-421.44507	1442.72571	412.83679	-458.52972	1674.96692	213.14890	-338.21536	1560.08020	257.35419	-535.67023	1531.28369	372.99356	-346.03659	1428.75293	120.84403	-642.04028	1427.09937	266.89078	-463.28198	1314.23926	260.58032	-552.26398	1420.51733	100.44134	-244.10704	1079.40527	91.21121	-770.86517	1103.43896	261.21472	-216.92949	838.73651	91.31203	-812.86908	861.55548	332.96982	-415.72678	999.29413	273.66309	-542.83234	1013.82336	329.54404	-595.81311	935.43738	65.62099	-418.14145	453.01282	256.28903	-708.84894	585.92371	393.06833	-542.14746	312.13489	32.81750	-597.80823	172.61998	479.77496	
265	2.640	-415.26517	1443.52869	424.60681	-453.31699	1676.96228	225.84294	-332.78741	1561.69946	270.63043	-530.22064	1532.64087	384.96344	-342.45624	1431.82739	129.32452	-635.14294	1428.86572	281.64841	-456.70004	1315.70190	271.67996	-549.11450	1423.22607	114.24593	-240.80296	1082.61523	94.34607	-764.75842	1106.07178	279.17670	-211.79466	841.74500	93.51545	-803.30969	864.02869	353.31409	-408.33664	1001.98242	282.41406	-535.40820	1015.38879	340.08200	-592.68823	938.61908	76.48454	-404.65143	459.91696	280.86203	-706.28033	585.78918	399.99973	-537.34753	316.51587	67.41702	-596.88092	171.48323	475.25345	
266	2.650	-410.89465	1445.25769	437.05350	-447.83954	1678.74707	238.29625	-326.99561	1562.72192	282.86478	-523.95935	1534.28308	397.29825	-339.21704	1434.36658	138.19301	-628.29016	1430.47388	296.63232	-450.89926	1317.33838	282.02222	-545.81445	1424.96155	127.86578	-237.08755	1085.67725	98.50470	-758.44702	1107.96594	297.08578	-206.98006	845.19824	95.81069	-792.15393	866.03326	374.03702	-401.68469	1004.02374	289.68015	-526.73151	1016.36169	350.44373	-589.87567	940.86963	88.02730	-387.84348	468.92087	301.53110	-703.93066	585.60901	406.45807	-530.19464	321.52661	100.65694	-595.97369	169.97780	470.11282	
